<?xml version="1.0" encoding="UTF-8"?>
<!DOCTYPE svg PUBLIC "-//W3C//DTD SVG 1.1//EN" "http://www.w3.org/Graphics/SVG/1.1/DTD/svg11.dtd">
<svg xmlns="http://www.w3.org/2000/svg" version="1.1" width="512px" height="512px" style="shape-rendering:geometricPrecision; text-rendering:geometricPrecision; image-rendering:optimizeQuality; fill-rule:evenodd; clip-rule:evenodd" xmlns:xlink="http://www.w3.org/1999/xlink">
<g><path style="opacity:1" fill="#71c1fa" d="M 261.5,11.5 C 258.695,12.3195 255.695,12.8195 252.5,13C 236.97,27.0328 221.637,41.1994 206.5,55.5C 141.856,73.305 95.3562,112.638 67,173.5C 65.0612,178.485 63.2279,183.485 61.5,188.5C 45.5315,202.492 29.5315,216.492 13.5,230.5C 15.4088,206.865 21.0754,184.198 30.5,162.5C 81.2079,116.157 131.875,69.8239 182.5,23.5C 208.015,15.0442 234.348,11.0442 261.5,11.5 Z"/></g>
<g><path style="opacity:1" fill="#69bbfa" d="M 261.5,11.5 C 276.481,12.1244 291.147,14.1244 305.5,17.5C 293.642,28.2686 281.976,39.2686 270.5,50.5C 248.94,49.1596 227.607,50.8263 206.5,55.5C 221.637,41.1994 236.97,27.0328 252.5,13C 255.695,12.8195 258.695,12.3195 261.5,11.5 Z"/></g>
<g><path style="opacity:1" fill="#62b5fa" d="M 305.5,17.5 C 321.21,20.1831 336.21,24.8498 350.5,31.5C 348.068,32.7502 345.734,34.2502 343.5,36C 334.937,44.0688 326.27,51.9021 317.5,59.5C 302.196,54.6713 286.529,51.6713 270.5,50.5C 281.976,39.2686 293.642,28.2686 305.5,17.5 Z"/></g>
<g><path style="opacity:1" fill="#75c8fa" d="M 182.5,23.5 C 131.875,69.8239 81.2079,116.157 30.5,162.5C 60.1661,93.1658 110.833,46.8325 182.5,23.5 Z"/></g>
<g><path style="opacity:1" fill="#58affa" d="M 350.5,31.5 C 365.257,37.0415 378.924,44.3748 391.5,53.5C 384.435,60.8804 377.101,68.0471 369.5,75C 367.266,76.7498 364.932,78.2498 362.5,79.5C 348.115,71.4749 333.115,64.8082 317.5,59.5C 326.27,51.9021 334.937,44.0688 343.5,36C 345.734,34.2502 348.068,32.7502 350.5,31.5 Z"/></g>
<g><path style="opacity:1" fill="#51a8fa" d="M 391.5,53.5 C 402.726,60.7256 413.059,69.0589 422.5,78.5C 415.697,85.1338 408.697,91.6338 401.5,98C 398.882,100.106 396.882,102.606 395.5,105.5C 385.05,96.0405 374.05,87.3738 362.5,79.5C 364.932,78.2498 367.266,76.7498 369.5,75C 377.101,68.0471 384.435,60.8804 391.5,53.5 Z"/></g>
<g><path style="opacity:1" fill="#4aa2fa" d="M 422.5,78.5 C 432.62,86.9488 441.287,96.6154 448.5,107.5C 440.697,115.764 432.363,123.597 423.5,131C 422.177,131.816 421.511,132.983 421.5,134.5C 413.574,124.237 404.908,114.57 395.5,105.5C 396.882,102.606 398.882,100.106 401.5,98C 408.697,91.6338 415.697,85.1338 422.5,78.5 Z"/></g>
<g><path style="opacity:1" fill="#409cfa" d="M 448.5,107.5 C 457.661,118.475 465.328,130.475 471.5,143.5C 470.577,142.697 469.577,142.53 468.5,143C 459.63,151.373 450.63,159.54 441.5,167.5C 435.602,156.037 428.935,145.037 421.5,134.5C 421.511,132.983 422.177,131.816 423.5,131C 432.363,123.597 440.697,115.764 448.5,107.5 Z"/></g>
<g><path style="opacity:1" fill="#58affa" d="M 287.5,148.5 C 252.163,182.002 216.33,215.002 180,247.5C 179.617,246.944 179.117,246.611 178.5,246.5C 169.499,212.668 177.833,183.834 203.5,160C 229.454,140.506 257.454,136.673 287.5,148.5 Z"/></g>
<g><path style="opacity:1" fill="#51a7fa" d="M 287.5,148.5 C 300.513,153.848 311.179,162.181 319.5,173.5C 279.833,209.5 240.167,245.5 200.5,281.5C 189.894,271.967 182.56,260.301 178.5,246.5C 179.117,246.611 179.617,246.944 180,247.5C 216.33,215.002 252.163,182.002 287.5,148.5 Z"/></g>
<g><path style="opacity:1" fill="#3996fa" d="M 471.5,143.5 C 479.043,157.112 485.043,171.445 489.5,186.5C 479.129,196.206 468.463,205.539 457.5,214.5C 453.39,198.505 448.057,182.838 441.5,167.5C 450.63,159.54 459.63,151.373 468.5,143C 469.577,142.53 470.577,142.697 471.5,143.5 Z"/></g>
<g><path style="opacity:1" fill="#4aa2fa" d="M 319.5,173.5 C 328.714,184.786 334.048,197.786 335.5,212.5C 302.209,241.456 269.543,271.123 237.5,301.5C 223.21,298.192 210.876,291.526 200.5,281.5C 240.167,245.5 279.833,209.5 319.5,173.5 Z"/></g>
<g><path style="opacity:1" fill="#69bbfa" d="M 61.5,188.5 C 54.2703,209.21 50.2703,230.543 49.5,252.5C 37.5,262.833 25.5,273.167 13.5,283.5C 10.9186,265.686 10.9186,248.019 13.5,230.5C 29.5315,216.492 45.5315,202.492 61.5,188.5 Z"/></g>
<g><path style="opacity:1" fill="#328ffa" d="M 489.5,186.5 C 493.784,202.255 496.784,218.255 498.5,234.5C 497.778,234.082 497.278,233.416 497,232.5C 484.997,243.004 473.164,253.67 461.5,264.5C 461.244,247.738 459.911,231.071 457.5,214.5C 468.463,205.539 479.129,196.206 489.5,186.5 Z"/></g>
<g><path style="opacity:1" fill="#439cfa" d="M 335.5,212.5 C 338.531,246.602 325.864,273.102 297.5,292C 278.67,302.571 258.67,305.738 237.5,301.5C 269.543,271.123 302.209,241.456 335.5,212.5 Z"/></g>
<g><path style="opacity:1" fill="#2989fa" d="M 498.5,234.5 C 500.03,252.724 499.363,270.724 496.5,288.5C 496.631,287.761 496.464,287.094 496,286.5C 480.296,301.04 464.463,315.374 448.5,329.5C 456.29,308.552 460.623,286.885 461.5,264.5C 473.164,253.67 484.997,243.004 497,232.5C 497.278,233.416 497.778,234.082 498.5,234.5 Z"/></g>
<g><path style="opacity:1" fill="#62b4fa" d="M 49.5,252.5 C 49.8514,268.644 51.5181,284.644 54.5,300.5C 44.1409,309.862 33.8076,319.195 23.5,328.5C 18.3998,314.012 15.0664,299.012 13.5,283.5C 25.5,273.167 37.5,262.833 49.5,252.5 Z"/></g>
<g><path style="opacity:1" fill="#2383fa" d="M 496.5,288.5 C 493.67,313.502 486.67,337.169 475.5,359.5C 475.565,359.062 475.399,358.728 475,358.5C 428.971,400.366 383.137,442.366 337.5,484.5C 314.115,493.51 289.781,498.176 264.5,498.5C 307.559,458.104 350.892,418.104 394.5,378.5C 398.569,383.628 402.402,388.961 406,394.5C 423.686,375.127 437.852,353.46 448.5,329.5C 464.463,315.374 480.296,301.04 496,286.5C 496.464,287.094 496.631,287.761 496.5,288.5 Z"/></g>
<g><path style="opacity:1" fill="#429cfa" d="M 281.5,312.5 C 280.457,315.056 278.79,317.223 276.5,319C 224.971,365.699 173.638,412.533 122.5,459.5C 111.07,452.121 100.403,443.788 90.5,434.5C 135.158,394.507 179.492,354.174 223.5,313.5C 242.778,310.018 262.111,309.684 281.5,312.5 Z"/></g>
<g><path style="opacity:1" fill="#49a2fa" d="M 223.5,313.5 C 179.492,354.174 135.158,394.507 90.5,434.5C 80.4266,425.763 71.4266,416.096 63.5,405.5C 73.442,397.563 83.1087,389.23 92.5,380.5C 96.8012,384.972 100.968,389.639 105,394.5C 132.634,350.401 172.134,323.401 223.5,313.5 Z"/></g>
<g><path style="opacity:1" fill="#3996fa" d="M 281.5,312.5 C 299.857,315.397 317.19,321.064 333.5,329.5C 277.425,379.402 221.758,429.902 166.5,481C 167.416,481.278 168.082,481.778 168.5,482.5C 152.058,476.945 136.724,469.279 122.5,459.5C 173.638,412.533 224.971,365.699 276.5,319C 278.79,317.223 280.457,315.056 281.5,312.5 Z"/></g>
<g><path style="opacity:1" fill="#58affa" d="M 54.5,300.5 C 58.5624,316.346 64.229,331.68 71.5,346.5C 61.5062,355.161 51.8395,364.161 42.5,373.5C 34.2699,359.365 27.9365,344.365 23.5,328.5C 33.8076,319.195 44.1409,309.862 54.5,300.5 Z"/></g>
<g><path style="opacity:1" fill="#328ffa" d="M 333.5,329.5 C 345.693,334.755 356.693,341.755 366.5,350.5C 314.8,398.868 262.8,446.868 210.5,494.5C 195.872,492.346 181.872,488.346 168.5,482.5C 168.082,481.778 167.416,481.278 166.5,481C 221.758,429.902 277.425,379.402 333.5,329.5 Z"/></g>
<g><path style="opacity:1" fill="#2a88fa" d="M 366.5,350.5 C 376.833,358.833 386.167,368.167 394.5,378.5C 350.892,418.104 307.559,458.104 264.5,498.5C 246.345,499.689 228.345,498.356 210.5,494.5C 262.8,446.868 314.8,398.868 366.5,350.5 Z"/></g>
<g><path style="opacity:1" fill="#51a8fa" d="M 71.5,346.5 C 77.4973,358.503 84.4973,369.837 92.5,380.5C 83.1087,389.23 73.442,397.563 63.5,405.5C 55.5054,395.518 48.5054,384.851 42.5,373.5C 51.8395,364.161 61.5062,355.161 71.5,346.5 Z"/></g>
<g><path style="opacity:1" fill="#1e7dfa" d="M 475.5,359.5 C 446.597,420.071 400.597,461.738 337.5,484.5C 383.137,442.366 428.971,400.366 475,358.5C 475.399,358.728 475.565,359.062 475.5,359.5 Z"/></g>
</svg>
